<svg viewBox="0 0 330 200" xmlns="http://www.w3.org/2000/svg"><g><g><g><g><g><line x1="39.15625" y1="177" x2="34.15625" y2="177" style="visibility: inherit;" fill="rgb(0, 0, 0)" stroke="rgb(204, 204, 204)" stroke-width="1px"></line><line x1="39.15625" y1="160.90909090909093" x2="34.15625" y2="160.90909090909093" style="visibility: inherit;" fill="rgb(0, 0, 0)" stroke="rgb(204, 204, 204)" stroke-width="1px"></line><line x1="39.15625" y1="144.8181818181818" x2="34.15625" y2="144.8181818181818" style="visibility: inherit;" fill="rgb(0, 0, 0)" stroke="rgb(204, 204, 204)" stroke-width="1px"></line><line x1="39.15625" y1="128.72727272727272" x2="34.15625" y2="128.72727272727272" style="visibility: inherit;" fill="rgb(0, 0, 0)" stroke="rgb(204, 204, 204)" stroke-width="1px"></line><line x1="39.15625" y1="112.63636363636364" x2="34.15625" y2="112.63636363636364" style="visibility: inherit;" fill="rgb(0, 0, 0)" stroke="rgb(204, 204, 204)" stroke-width="1px"></line><line x1="39.15625" y1="96.54545454545453" x2="34.15625" y2="96.54545454545453" style="visibility: inherit;" fill="rgb(0, 0, 0)" stroke="rgb(204, 204, 204)" stroke-width="1px"></line><line x1="39.15625" y1="80.45454545454547" x2="34.15625" y2="80.45454545454547" style="visibility: inherit;" fill="rgb(0, 0, 0)" stroke="rgb(204, 204, 204)" stroke-width="1px"></line><line x1="39.15625" y1="64.36363636363636" x2="34.15625" y2="64.36363636363636" style="visibility: inherit;" fill="rgb(0, 0, 0)" stroke="rgb(204, 204, 204)" stroke-width="1px"></line><line x1="39.15625" y1="48.27272727272725" x2="34.15625" y2="48.27272727272725" style="visibility: inherit;" fill="rgb(0, 0, 0)" stroke="rgb(204, 204, 204)" stroke-width="1px"></line><line x1="39.15625" y1="32.18181818181813" x2="34.15625" y2="32.18181818181813" style="visibility: inherit;" fill="rgb(0, 0, 0)" stroke="rgb(204, 204, 204)" stroke-width="1px"></line><line x1="39.15625" y1="16.090909090909122" x2="34.15625" y2="16.090909090909122" style="visibility: inherit;" fill="rgb(0, 0, 0)" stroke="rgb(204, 204, 204)" stroke-width="1px"></line><line x1="39.15625" y1="0" x2="34.15625" y2="0" style="visibility: inherit;" fill="rgb(0, 0, 0)" stroke="rgb(204, 204, 204)" stroke-width="1px"></line></g><g transform="translate(29.15625, 0)"><text x="0" y="177" dx="0em" dy="0.3em" style="text-anchor: end; visibility: hidden; font-family: &quot;Helvetica Neue&quot;, sans-serif; font-size: 12px; font-weight: 200;" fill="rgb(50, 49, 63)" stroke="none" stroke-width="1px">1.3</text><text x="0" y="160.90909090909093" dx="0em" dy="0.3em" style="text-anchor: end; visibility: inherit; font-family: &quot;Helvetica Neue&quot;, sans-serif; font-size: 12px; font-weight: 200;" fill="rgb(50, 49, 63)" stroke="none" stroke-width="1px">1.4</text><text x="0" y="144.8181818181818" dx="0em" dy="0.3em" style="text-anchor: end; visibility: hidden; font-family: &quot;Helvetica Neue&quot;, sans-serif; font-size: 12px; font-weight: 200;" fill="rgb(50, 49, 63)" stroke="none" stroke-width="1px">1.5</text><text x="0" y="128.72727272727272" dx="0em" dy="0.3em" style="text-anchor: end; visibility: inherit; font-family: &quot;Helvetica Neue&quot;, sans-serif; font-size: 12px; font-weight: 200;" fill="rgb(50, 49, 63)" stroke="none" stroke-width="1px">1.6</text><text x="0" y="112.63636363636364" dx="0em" dy="0.3em" style="text-anchor: end; visibility: hidden; font-family: &quot;Helvetica Neue&quot;, sans-serif; font-size: 12px; font-weight: 200;" fill="rgb(50, 49, 63)" stroke="none" stroke-width="1px">1.7</text><text x="0" y="96.54545454545453" dx="0em" dy="0.3em" style="text-anchor: end; visibility: inherit; font-family: &quot;Helvetica Neue&quot;, sans-serif; font-size: 12px; font-weight: 200;" fill="rgb(50, 49, 63)" stroke="none" stroke-width="1px">1.8</text><text x="0" y="80.45454545454547" dx="0em" dy="0.3em" style="text-anchor: end; visibility: hidden; font-family: &quot;Helvetica Neue&quot;, sans-serif; font-size: 12px; font-weight: 200;" fill="rgb(50, 49, 63)" stroke="none" stroke-width="1px">1.9</text><text x="0" y="64.36363636363636" dx="0em" dy="0.3em" style="text-anchor: end; visibility: inherit; font-family: &quot;Helvetica Neue&quot;, sans-serif; font-size: 12px; font-weight: 200;" fill="rgb(50, 49, 63)" stroke="none" stroke-width="1px">2</text><text x="0" y="48.27272727272725" dx="0em" dy="0.3em" style="text-anchor: end; visibility: hidden; font-family: &quot;Helvetica Neue&quot;, sans-serif; font-size: 12px; font-weight: 200;" fill="rgb(50, 49, 63)" stroke="none" stroke-width="1px">2.1</text><text x="0" y="32.18181818181813" dx="0em" dy="0.3em" style="text-anchor: end; visibility: inherit; font-family: &quot;Helvetica Neue&quot;, sans-serif; font-size: 12px; font-weight: 200;" fill="rgb(50, 49, 63)" stroke="none" stroke-width="1px">2.2</text><text x="0" y="16.090909090909122" dx="0em" dy="0.3em" style="text-anchor: end; visibility: hidden; font-family: &quot;Helvetica Neue&quot;, sans-serif; font-size: 12px; font-weight: 200;" fill="rgb(50, 49, 63)" stroke="none" stroke-width="1px">2.3</text><text x="0" y="0" dx="0em" dy="0.3em" style="text-anchor: end; visibility: hidden; font-family: &quot;Helvetica Neue&quot;, sans-serif; font-size: 12px; font-weight: 200;" fill="rgb(50, 49, 63)" stroke="none" stroke-width="1px">2.4</text></g><line x1="39.15625" y1="0" x2="39.15625" y2="177" fill="rgb(0, 0, 0)" stroke="rgb(204, 204, 204)" stroke-width="1px"></line></g></g><g transform="translate(39, 0)" clip-path="url(#clip_0)"><clipPath id="clip_0"><rect width="290" height="177"></rect></clipPath><g><g><g><line x1="0" y1="0" x2="0" y2="177" fill="rgb(0, 0, 0)" stroke="rgb(60, 60, 60)" stroke-width="1px" opacity="0.25"></line><line x1="36.35546875" y1="0" x2="36.35546875" y2="177" fill="rgb(0, 0, 0)" stroke="rgb(60, 60, 60)" stroke-width="1px" opacity="0.25"></line><line x1="72.7109375" y1="0" x2="72.7109375" y2="177" fill="rgb(0, 0, 0)" stroke="rgb(60, 60, 60)" stroke-width="1px" opacity="0.25"></line><line x1="109.06640625" y1="0" x2="109.06640625" y2="177" fill="rgb(0, 0, 0)" stroke="rgb(60, 60, 60)" stroke-width="1px" opacity="0.25"></line><line x1="145.421875" y1="0" x2="145.421875" y2="177" fill="rgb(0, 0, 0)" stroke="rgb(60, 60, 60)" stroke-width="1px" opacity="0.25"></line><line x1="181.77734375" y1="0" x2="181.77734375" y2="177" fill="rgb(0, 0, 0)" stroke="rgb(60, 60, 60)" stroke-width="1px" opacity="0.25"></line><line x1="218.1328125" y1="0" x2="218.1328125" y2="177" fill="rgb(0, 0, 0)" stroke="rgb(60, 60, 60)" stroke-width="1px" opacity="0.25"></line><line x1="254.48828125" y1="0" x2="254.48828125" y2="177" fill="rgb(0, 0, 0)" stroke="rgb(60, 60, 60)" stroke-width="1px" opacity="0.25"></line><line x1="290.84375" y1="0" x2="290.84375" y2="177" fill="rgb(0, 0, 0)" stroke="rgb(60, 60, 60)" stroke-width="1px" opacity="0.25"></line></g><g><line x1="0" y1="177" x2="290.84375" y2="177" fill="rgb(0, 0, 0)" stroke="rgb(60, 60, 60)" stroke-width="1px" opacity="0.25"></line><line x1="0" y1="160.90909090909093" x2="290.84375" y2="160.90909090909093" fill="rgb(0, 0, 0)" stroke="rgb(60, 60, 60)" stroke-width="1px" opacity="0.25"></line><line x1="0" y1="144.8181818181818" x2="290.84375" y2="144.8181818181818" fill="rgb(0, 0, 0)" stroke="rgb(60, 60, 60)" stroke-width="1px" opacity="0.25"></line><line x1="0" y1="128.72727272727272" x2="290.84375" y2="128.72727272727272" fill="rgb(0, 0, 0)" stroke="rgb(60, 60, 60)" stroke-width="1px" opacity="0.25"></line><line x1="0" y1="112.63636363636364" x2="290.84375" y2="112.63636363636364" fill="rgb(0, 0, 0)" stroke="rgb(60, 60, 60)" stroke-width="1px" opacity="0.25"></line><line x1="0" y1="96.54545454545453" x2="290.84375" y2="96.54545454545453" fill="rgb(0, 0, 0)" stroke="rgb(60, 60, 60)" stroke-width="1px" opacity="0.25"></line><line x1="0" y1="80.45454545454547" x2="290.84375" y2="80.45454545454547" fill="rgb(0, 0, 0)" stroke="rgb(60, 60, 60)" stroke-width="1px" opacity="0.25"></line><line x1="0" y1="64.36363636363636" x2="290.84375" y2="64.36363636363636" fill="rgb(0, 0, 0)" stroke="rgb(60, 60, 60)" stroke-width="1px" opacity="0.25"></line><line x1="0" y1="48.27272727272725" x2="290.84375" y2="48.27272727272725" fill="rgb(0, 0, 0)" stroke="rgb(60, 60, 60)" stroke-width="1px" opacity="0.25"></line><line x1="0" y1="32.18181818181813" x2="290.84375" y2="32.18181818181813" fill="rgb(0, 0, 0)" stroke="rgb(60, 60, 60)" stroke-width="1px" opacity="0.25"></line><line x1="0" y1="16.090909090909122" x2="290.84375" y2="16.090909090909122" fill="rgb(0, 0, 0)" stroke="rgb(60, 60, 60)" stroke-width="1px" opacity="0.25"></line><line x1="0" y1="0" x2="290.84375" y2="0" fill="rgb(0, 0, 0)" stroke="rgb(60, 60, 60)" stroke-width="1px" opacity="0.25"></line></g></g></g><g><g><line x1="0" y1="386.18181818181824" x2="290.84375" y2="386.18181818181824" fill="rgb(0, 0, 0)" stroke="rgb(153, 153, 153)" stroke-width="1.5px"></line></g></g><g><g><line x1="36.35546875" y1="0" x2="36.35546875" y2="177" fill="rgb(0, 0, 0)" stroke="rgb(153, 153, 153)" stroke-width="1.5px"></line></g></g><g><g><g><g><g><path stroke="rgb(255, 112, 67)" stroke-width="2px" d="M44.444560546874996,-8.084147154573742L44.7172265625,9.508399582693102L44.771759765625,20.637630718329547L44.7899375,27.536996602045974L44.97171484375001,29.96064977156911L46.098734375,28.982151243994167L46.589533203125,28.209018905619104L46.880376953125,28.47997360414925L47.00762109375,28.94136908678263L47.025798828125005,29.210441545755174L47.6256640625,28.913346519413892L47.88015234375,28.657318579340057L48.025574218749995,28.376211512463698L48.061929687500005,28.449745091372733L48.116462890624994,28.56100174312641L48.152818359375,28.424811671775785L48.370951171875,28.35287270413525L48.552728515625,28.313714495625618L49.33437109375,28.191348599517397L49.47979296875,28.444235491707815L49.62521484375,28.564141087517584L50.025124999999996,28.57743399471883L50.097835937499994,28.504753860795603L50.261435546875,28.557607510015515L50.334146484375005,28.68280440469269L50.370501953125,28.879873124523215L50.624990234375005,28.839426678169474L50.661345703125,28.90721638523661L50.75223437499999,28.918856548587996L50.78858984375,28.9807314526237L50.93401171875,29.200789942325173L51.043078124999994,29.530428868737772L51.061255859375,29.765701248660775L51.5520546875,30.13985520160014L52.842673828125,30.800727179437388L52.879029296875,49.23867056579495L53.478894531250006,51.78551244731507L53.533427734374996,50.948878071499664L53.842449218750005,51.31465402948433L54.006048828125,50.51593121441023L54.0242265625,50.08827370625737L54.133292968750006,50.10782123502929L54.151470703125,50.35227940400365L54.242359375,50.97256206226295L54.569558593749996,51.047796489039L54.624091796875,50.855312283127276L54.78769140625,51.42992364320847L55.678400390625,51.124072512979154L55.73293359375,51.17608436513726L55.842,50.93208551745886L55.95106640625,50.53113527501387L56.04195507812501,50.28232460317419L56.223732421875,50.35640710487766L56.33279882812501,50.24617409968528L56.4236875,50.195517892678055L57.3689296875,50.77714821563167L57.459818359375,51.128965324448444L57.47799609375,51.41710527859796L57.805195312500004,51.851368926519314L58.041505859375,51.758367101067634L58.27781640625,51.886404936793596L58.968570312500006,51.695295439964795L59.277591796875,51.45875588627666L59.641146484375,51.298371533530485L59.750212890625,51.385289305977025L59.87745703125,51.58162616273766L60.2773671875,51.616654721385274L60.331900390625,51.59347685479828L60.53185546875,51.47558911677969L60.58638867187501,51.42182858228928L60.640921875,51.38723974761241L60.659099609375005,51.36200556468188L61.531630859375,59.23285697504795L61.640697265625,62.34526564460127L61.658874999999995,63.91467847585267L62.05878515625,62.36569996950594L62.276917968750006,61.32786631099374L62.4586953125,60.72503852119877L63.00402734375,61.228996099113985L63.203982421875,60.918625360828955L63.349404296875,61.19589799897916L63.458470703125,61.57593213906483L64.040158203125,61.26101395720603L64.11286914062501,60.69192465087394L64.5673125,60.498340177182044L64.85815625000001,60.49585351315851L64.876333984375,60.51888360253504L65.149,60.92991958010565L65.2217109375,61.01427798999016L65.530732421875,61.030841400872234L66.166953125,61.9650227675197L66.312375,62.604622226102364L66.6759296875,62.911930686375L66.93041796874999,63.20023539865805L67.09401757812499,63.35782670284007L67.203083984375,63.613064076874295L67.239439453125,63.75393011191268L67.29397265625,63.7931191651423L67.421216796875,63.78942504911198L67.58481640625,63.73929996993013L67.8393046875,63.72320466082989L67.87566015625,63.71830457625536L67.930193359375,63.74054646923068L68.07561523437501,63.71832076678125L68.09379296875,63.77792244372803L68.62094726562499,63.88120359149757L68.730013671875,63.867795249353236L69.166279296875,59.73784509061866L69.54801171875,68.77113073649735L69.8752109375,72.22175443032114L70.038810546875,74.37312979830722L70.27512109375,75.27834595586366L70.329654296875,75.87773987748434L70.475076171875,76.30775830533307L71.202185546875,74.05857770402226L71.51120703125001,72.69567273332255L71.692984375,71.45546082854776L71.747517578125,70.82303348357331L72.111072265625,70.73867845910426L72.401916015625,70.13594250470612L72.729115234375,69.6914736674549L72.80182617187499,69.22269997764465L72.947248046875,69.08955807439693L73.25626953125,68.68691898284952L73.36533593749999,68.25838146311838L73.8016015625,68.30691035592056L74.03791210937501,68.39333541178621L74.09244531249999,68.44621859291634L74.110623046875,68.483212003542L74.256044921875,68.33442863679818L74.32875585937501,68.22942949285606L74.456,68.04362007620959L74.728666015625,67.60473846688774L75.346708984375,67.63252873000444L75.419419921875,67.75329899709138L75.5466640625,67.8207815469004L75.710263671875,68.04027617946358L76.110173828125,68.41483063195292L76.18288476562499,68.81497756223008L76.328306640625,68.97543798976668L76.473728515625,69.02887732008847L76.546439453125,69.06747809562754L76.909994140625,68.87425185260469L77.0008828125,68.86556571353033L77.019060546875,68.84355839486234L77.055416015625,68.86660771605555L77.10994921875,68.78513416344958L77.32808203124999,68.58788219345993L77.382615234375,68.55576497413203L77.47350390624999,68.6588979174182L77.818880859375,72.83073637542039L78.109724609375,74.58185689136444L78.291501953125,77.26326338450235L78.509634765625,78.83423461914137L78.982255859375,81.28673652648968L79.14585546875,82.49296024183818L79.782076171875,83.64655224526156L79.80025390624999,84.16788148906367L79.83660937500001,84.52764389747486L80.6364296875,83.63069268149418L80.7818515625,83.03427815703107L80.945451171875,82.67155725031715L80.981806640625,82.32684873069734L81.0726953125,82.18180454849086L81.52713867187501,81.64022937680795L81.54531640625,81.31434052636443L81.72709375000001,80.9829152583818L81.76344921875,80.86868278415172L81.854337890625,80.88519565980155L82.10882617187501,80.53984769470352L82.21789257812499,80.494909765046L82.3814921875,80.70406801152949L82.654158203125,80.33880662112666L82.726869140625,79.94478796562368L82.763224609375,79.63703560452514L83.21766796875,79.58817639991877L83.617578125,79.81279799152377L83.72664453125,80.12706710473978L84.035666015625,80.37354243957948L84.14473242187499,80.6568362153679L84.617353515625,80.89457815023017L85.03544140625,81.07969194566618L85.162685546875,81.1304447873449L85.25357421875,81.14332591004899L85.489884765625,81.21175365642256L85.61712890625,81.21707833840145L85.889794921875,81.14656110209263L86.1624609375,79.83736573979118L86.41694921874999,81.29261183986526L87.053169921875,81.85904925668463L87.07134765625,82.4567158838004L87.08952539062501,82.65288388305788L88.561921875,83.15348526744013L88.72552148437501,83.62560045826847L88.88912109374999,83.59526920599966L88.9981875,83.26403787088151L89.434453125,82.83199396234716L90.288806640625,82.64347194732407L90.434228515625,82.45900989777012L91.088626953125,82.6357536344462L91.37947070312501,82.67059681803568L91.43400390625,82.85923657086569L91.57942578125001,82.94029464609939L91.63395898437501,82.99857412964793L92.070224609375,83.17340058581269L92.142935546875,83.35994212164587L92.68826757812501,83.5845182612133L93.10635546875,83.90831266869475L93.37902148437499,84.05485717671733L93.706220703125,84.42976750156761L93.81528710937499,84.67054256603735L94.10613085937499,83.41772431073504L94.43333007812501,84.84554516473527L94.4515078125,85.82872285148785L95.06955078125,84.85867633749906L95.251328125,85.09958851859159L95.305861328125,85.24952209308856L95.32403906249999,85.02536779721557L95.36039453125001,84.74404192993845L95.378572265625,84.30861090493627L95.833015625,84.13078570127308L96.43288085937499,83.6390953353091L96.85096875,83.67799123418048L97.159990234375,83.79790559422368L97.7235,84.25368319702436L98.214298828125,84.4675171972812L98.3051875,84.3588986278475L98.70509765624999,84.45059672426045L99.050474609375,84.74940932975002L99.08683007812499,84.98164649499745L99.32314062500001,84.95236491323935L99.613984375,85.27807450228153L100.14113867187501,85.31774356542144L100.19567187499999,85.27644177586339L100.650115234375,85.19938630159095L101.122736328125,85.31416553651708L101.4317578125,85.26686007020126L101.7953125,85.25891697873296L102.12251171875,85.47687551821676L102.15886718750001,85.63867921607032L102.19522265625,85.76389738469759L102.3042890625,85.93011909508914L102.813265625,84.42390857156097L103.06775390625,89.36630629960825L104.08570703125,92.18700630562165L104.15841796875,93.72277190797074L104.30383984375001,94.44744074758505L104.35837304687499,95.25650312715374L104.9218828125,95.61199497328539L105.0673046875,95.31839796337741L105.303615234375,94.97884101475688L105.39450390625,94.37267145615246L105.68534765625,94.29721934368162L105.776236328125,94.1604966480458L105.812591796875,94.03358515472937L105.99436914062501,93.85043417978774L106.067080078125,93.73719827871616L106.594234375,93.69990167506826L106.8123671875,93.64378666030882L107.757609375,93.42565722824374L107.884853515625,93.116725886504L107.957564453125,92.97858514412106L108.15751953125,93.00768438808618L108.26658593750001,93.12019387925614L108.37565234374999,93.24119394069065L108.7755625,93.52142608571954L109.23000585937501,93.9646946042765L109.24818359375,94.2839429180724L109.46631640625,94.3154538252675L109.666271484375,94.33621717347859L109.72080468749999,94.25022621230414L110.756935546875,93.99577197380358L110.84782421874999,93.90395963106504L110.86600195312501,93.79082792187467L111.047779296875,93.82408332663886L112.37475390625,94.45971284249653L112.574708984375,95.22313178958215L112.59288671875,95.79252233678582L112.6292421875,96.23631924299723L112.72013085937499,96.82416206110152L112.73830859375,97.25806839498334L113.19275195312501,98.15699160725255L113.283640625,99.16191225644361L113.33817382812501,99.6820450540892L113.483595703125,100.41174448122564L113.847150390625,100.64469421695026L113.90168359375,100.84150323255166L113.91986132812501,101.02318801165514L114.19252734375,101.39363993649582L114.48337109375,101.72723492486578L114.5924375,101.80858715964249L114.828748046875,101.54057558152992L114.865103515625,101.32423331819507L115.1014140625,101.16811812319966L115.301369140625,101.0483846969955L115.77399023437499,101.07711128854254L116.210255859375,101.23534157552423L116.3375,101.33313400824458L116.44656640625,101.43280493566964L116.51927734375,101.31079416537573L116.88283203124999,101.02407827361453L116.937365234375,100.92246150440754L117.700830078125,101.1791506908886L118.0098515625,101.3838887091554L118.31887304687501,101.63451338809645L118.33705078125,101.7583942126258L118.70060546875,101.6388401552832L118.755138671875,101.61776317256557L118.91873828125,101.54187823213041L119.57313671875,105.30637842180833L119.62766992187501,106.2845206864246L119.918513671875,107.05691763424466L119.95486914062501,106.83043806514927L120.4820234375,106.14435324255967L120.991,104.82724190464224L121.136421875,104.15875688456225L121.2091328125,103.53862439496407L121.3545546875,103.33819184299706L121.554509765625,103.46943716653931L122.027130859375,103.64970242811128L122.11801953125,103.7545469599213L122.40886328125,103.64647426588806L122.69970703125,103.90293445057122L122.84512890625,104.37495319221827L123.00872851562501,104.66742543844667L123.17232812499999,104.60899753199443L123.372283203125,104.68868666512896L123.39046093750001,104.78974131121116L123.49952734374999,104.65139684520669L123.60859375,104.36745636239245L123.64494921874999,104.14207850278534L123.69948242187499,103.96974640011373L124.335703125,104.12408993358795L124.55383593750001,104.3250888991731L124.89921289062501,104.7155233171428L125.31730078125,104.71769882665593L125.68085546875,105.0075376465601L126.11712109375,104.99110319387643L126.40796484375,104.83496167003511L126.55338671874999,104.77272733077861L126.716986328125,104.71747854421355L126.77151953125001,104.69517085864763L126.807875,104.65054283633059L127.73493945312501,109.3617694502725L127.78947265625,112.45535576008771L128.15302734374998,111.93897253399173L128.18938281249999,112.28998831151607L128.207560546875,111.64735035225776L128.3348046875,110.79838758673199L128.66200390625,109.77286448133275L129.17098046875,109.32949679687627L129.53453515625,109.01433993770051L129.570890625,109.05944864063211L129.67995703125,108.75644778836651L130.152578125,108.80687820039974L130.243466796875,108.47499830633434L130.55248828125002,108.59527133064398L130.87968750000002,108.71579644665188L131.025109375,108.66635275181626L131.58861914062498,108.42202619382549L132.07941796875,108.26043771849811L132.497505859375,107.93077032707718L133.02466015624998,107.93166325437399L133.224615234375,107.84713130507747L133.515458984375,107.89608107179545L133.769947265625,107.76751518242553L134.1516796875,107.87307134103933L134.8787890625,107.8262551324767L135.27869921875,108.16462330313824L135.369587890625,108.40267027899098L136.0421640625,111.49318231903919L136.242119140625,108.12174516558512L136.351185546875,106.62746583658917L136.605673828125,104.72762566242601L136.642029296875,104.11739405056227L137.223716796875,106.30974670359453L137.65998242187501,108.53896668455738L137.878115234375,110.58912005853603L137.914470703125,111.98279497143974L138.023537109375,112.89020297759818L138.241669921875,112.96523701503844L138.69611328125,112.0421950800336L139.20508984375002,111.62730028311923L139.2414453125,111.21804143238374L139.31415625,111.25172794392509L139.58682226562502,111.1277383120704L140.332109375,110.32779457498862L140.386642578125,109.81190454831015L140.713841796875,109.55580351708869L141.041041015625,109.19133427443501L141.3500625,109.16473218621253L141.404595703125,109.09194659592661L141.586373046875,109.05821144441123L141.91357226562502,108.86905490834765L141.93175,108.76262758334754L142.24077148437502,108.6316577021442L142.2953046875,108.53799115996893L142.91334765625,108.39159813642215L142.94970312499998,108.26342671043048L143.076947265625,108.29569932015923L143.56774609375,108.59590831134214L143.731345703125,108.93134537722221L144.113078125,109.10002147568413L144.54934375,111.0510718505733L144.640232421875,112.89479348709739L144.749298828125,114.1091200775212L145.24009765625001,115.2250130985507L145.60365234374999,115.44226370810172L145.69454101562502,115.42651736744193L145.96720703124998,115.63374783564014L146.058095703125,115.9484238611852L146.5125390625,115.81194352160338L146.83973828125,116.13382576463164L146.91244921875003,116.16615742777314L147.003337890625,116.21968478814028L147.294181640625,116.2841725086125L147.330537109375,116.20351561787169L147.621380859375,116.33296032911369L147.657736328125,116.24316953194364L147.766802734375,116.32019205542831L147.803158203125,116.27121751534757L148.057646484375,116.17636127217573L148.13035742187498,115.97284441882022L148.5484453125,115.89480654468869L148.712044921875,115.78737682037902L149.057421875,115.68707960154084L149.257376953125,116.00910363541956L149.29373242187498,116.16421521220211L149.402798828125,116.42551472926664L149.63910937499998,116.4746074863942L149.96630859375,116.5079992580164L150.675240234375,116.71821093800519L151.093328125,116.77969508315837L151.1660390625,116.82402045856976L151.184216796875,116.83223946346031L151.3114609375,116.76700362833253L151.62048242187498,116.70675441026202L151.8204375,116.71992527376229L152.02039257812498,116.7323163467303L152.14763671875,116.82661411813282L152.256703125,116.92939804151126L152.69296875,104.07957535423971L153.692744140625,108.26310915720438L153.765455078125,111.21382905390682L154.001765625,114.12039479278164L154.419853515625,116.40995068945071L154.43803125,117.64208374867299L154.5107421875,118.26639519764294L154.874296875,119.59841767493508L154.89247460937503,120.35793238714601L154.91065234375,120.83939861394487L155.05607421874998,121.5171253109589L155.41962890625,121.9997675249293L155.85589453125,121.49886079551122L155.983138671875,121.0719850383752L156.037671875,120.67489594301357L156.383048828125,120.16608620930177L157.364646484375,120.48500873269442L157.52824609375,120.65953592053317L157.56460156249997,120.86044541678856L157.6373125,121.12562232694972L157.74637890625002,121.23701168206685L157.800912109375,121.23756046521709L157.92815625,121.07622503243172L158.07357812499998,120.91111333859246L158.128111328125,120.68733355165344L158.346244140625,120.31367608653908L158.83704296874998,119.98376654940381L158.90975390625002,119.84702630093577L159.109708984375,119.67531080016205L159.3096640625,119.5647008292544L160.54575000000003,119.31298438527017L160.80023828125,119.12382865710481L160.94566015624997,108.39987489548466L161.20014843750002,108.52668032572407L161.218326171875,109.3511936625476L161.690947265625,112.05409418651726L161.94543554687502,114.24970199530878L162.39987890625,115.46735170782756L162.92703320312498,116.65565904070719L162.98156640624998,117.42052653106106L163.45418750000002,118.75450806042964L163.78138671874999,119.34987360262632L163.85409765625,119.61930139837557L164.308541015625,120.18207375339856L164.43578515624998,120.47391554304369L164.781162109375,121.06987826307932L165.25378320312498,121.52462351706L165.52644921875,122.01632800115786L165.67187109375,122.15863240770324L165.69004882812501,122.23516837853195L166.08995898437502,122.17467668331648L166.162669921875,122.22936505699525L166.41715820312498,122.17434818791696L166.780712890625,122.23830619710189L167.144267578125,122.10972977975962L167.30786718750002,122.12751878299471L167.47146679687498,122.05129836634059L167.507822265625,121.95481859173984L167.52599999999998,121.8927337363594L167.87137695312498,122.02589445324142L167.92591015624998,122.06972898956072L168.089509765625,122.1802227242834L168.76208593750002,121.82917543532909L169.0529296875,121.70066076143604L169.252884765625,117.92074739167052L169.58008398437502,119.86647053389035L169.761861328125,120.79069380007607L169.7800390625,121.52809225237732L170.016349609375,121.98000716181235L170.10723828125,122.50101899511597L170.125416015625,122.92093708378445L170.54350390624998,123.40620071719238L170.61621484375,123.60516321297754L170.888880859375,124.41771936416569L171.434212890625,124.77232277610051L171.5978125,125.41611652721036L171.65234570312498,125.86958299151321L171.77958984375,126.09557270070849L171.9613671875,126.07653772921469L172.01590039062498,126.26924241076932L172.1067890625,126.63521149017663L172.28856640625,126.90200332773858L172.72483203125,127.11303311895483L172.888431640625,127.10379739968485L173.23380859374998,126.76561185232814L173.542830078125,126.30719049715569L174.4335390625,125.74400315251091L174.669849609375,125.44640333935757L174.7243828125,125.23488134597463L175.28789257812502,124.86992895982587L175.3060703125,124.65367367928741L175.615091796875,124.54480571840064L175.79686914062498,124.37184402521765L175.8877578125,124.16943389336603L176.087712890625,124.06410824806238L176.19677929687498,123.83228130723032L176.3240234375,123.58331145776125L176.65122265625,123.41193946559915L176.74211132812502,123.26139180657896L176.833,123.2553099333015L177.16019921875,123.17765719959107L177.36015429687498,125.56900303578303L177.41468749999999,123.57403287192646L177.77824218749998,125.40515265134525L177.9236640625,127.24498083696749L178.10544140625,127.28905705298394L178.32357421875,126.76027238181481L178.741662109375,126.20930516173827L178.83255078124998,126.29391999133841L179.94139257812498,126.3501979188337L179.9595703125,126.40134343904991L180.03228125,126.25983904460891L180.54125781250002,126.09365136474807L181.322900390625,125.88729529681794L181.468322265625,125.38323584043597L181.613744140625,125.26181552804587L181.63192187500002,125.21091505937567L182.24996484375,125.17122119534054L182.44991992187502,125.30402091446163L182.66805273437498,125.26801879423803L182.97707421875,125.3104465654749L184.06773828125,125.06144152535005L184.50400390625,125.10106420678605L185.0493359375,125.0079358977566L185.122046875,124.90279989994326L185.37653515625001,124.92856866940818L185.685556640625,127.46569238309132L185.794623046875,129.9669549553203L186.558087890625,126.95689900232813L186.848931640625,126.67610706559535L187.04888671875,126.01757378490888L187.21248632812498,125.47231357435388L187.35790820312502,125.16462319793484L187.721462890625,125.23211997353161L187.75781835937502,125.11580251002007L187.81235156250003,124.84274571471899L187.84870703125,124.68878645824756L187.9577734375,124.59054892843476L188.17590625,124.7113020601276L188.32132812499998,124.85369099490444L188.37586132812498,125.10098087703021L188.46675000000002,125.02603193795849L188.593994140625,124.9418548559264L188.630349609375,124.92657417149042L189.55741406250002,125.60937979383773L189.757369140625,125.9090206819223L189.90279101562498,126.31975479002385L190.266345703125,126.29876178493902L190.2845234375,126.25644177409674L190.32087890625002,126.33674948017128L190.5753671875,126.50346264330017L190.64807812499998,126.88627717059425L190.811677734375,127.0354327726241L190.82985546875,127.07744719790672L190.920744140625,127.15271283078184L190.99345507812498,127.21565762962422L191.01163281249998,127.36497085195276L191.284298828125,127.36958315259565L191.84780859375002,126.9344670692085L192.06594140625,126.56615548518023L192.19318554687501,126.33307629122187L192.28407421875,126.24996871202231L192.5385625,126.42740918665552L192.70216210937502,126.72721893146019L192.974828125,126.97836154596271L193.174783203125,127.22534771662349L193.30202734375,127.38461886043729L193.32020507812499,127.51706442407541L193.4838046875,127.46166795215257L194.17455859375002,130.12219215465336L194.31998046875,131.86323763422544L194.338158203125,132.6050601051158L194.410869140625,132.60761276865531L194.992556640625,131.76972322454768L195.84691015624998,131.29905389260045L195.91962109375,131.2402206895669L196.24682031249998,131.42021794653544L196.337708984375,131.50993982602395L196.664908203125,131.45500414379165L196.71944140624998,131.2954885054095L197.101173828125,130.87687939065748L197.30112890624997,130.74813254217588L197.73739453125,130.87996668975092L197.86463867187499,130.86636509297432L198.17366015624998,130.6654724943527L198.210015625,130.58485821890167L198.264548828125,130.6303196322271L198.64628125000002,130.56474861277687L198.68263671875,130.5687109646521L198.773525390625,130.53702139524188L198.97348046874998,130.3613302341067L199.19161328125,129.9537015218117L199.500634765625,129.70541068664656L199.82783398437502,129.53832083846555L199.936900390625,129.49832098319294L200.0277890625,129.50993794472424L200.118677734375,129.5364812899641L200.44587695312498,129.6174798335765L200.4640546875,129.65295089584848L200.954853515625,129.48048909053196L201.100275390625,129.28866036750776L201.28205273437501,129.24713706980884L201.4820078125,129.12174851684037L201.863740234375,129.0445204717847L202.190939453125,122.5520510715368L202.77262695312498,124.31462686096185L202.7908046875,125.36219776824393L202.89987109375002,126.00239520978279L203.84511328125,125.78304473639881L203.88146874999998,125.75849991326706L204.06324609375002,125.64382019158762L204.190490234375,125.39418881572493L204.68128906249999,125.93269343365824L205.063021484375,126.47054094568466L205.244798828125,126.72609760298045L205.53564257812502,127.1777171683695L205.571998046875,127.31008847147899L205.6992421875,127.70256685533167L206.28092968750002,127.64425686949947L206.371818359375,127.59626557799851L206.5717734375,127.77788811710715L206.662662109375,128.054495737585L207.44430468750002,128.29025925625228L207.498837890625,128.43372762621397L207.862392578125,128.72163248963273L207.971458984375,128.99225659477622L207.98963671875,129.25572712442388L208.4622578125,129.6886240912742L208.589501953125,129.96825002218338L209.71652148437502,130.5828247722905L209.73469921875,130.95261311545227L209.898298828125,131.1818289367485L210.02554296875002,131.30741964085212L210.08007617187502,137.44745620019677L210.2073203125,136.73702946532956L210.261853515625,140.4282437321929L210.661763671875,138.94737243289984L210.86171875,137.2350885802982L211.061673828125,134.57655441153727L211.243451171875,133.37840630643777L211.279806640625,132.92901488128865L211.297984375,132.61777073893722L211.352517578125,131.49475774455698L211.788783203125,131.74585312397642L211.897849609375,131.85831543516295L211.970560546875,131.9444989701959L212.3159375,133.08804814462974L212.49771484375,133.83056464027072L212.64313671875001,134.74465664762678L212.86126953125,135.21313884795939L213.58837890625,135.52451248621594L213.751978515625,135.9872024840724L213.77015624999999,136.2763946525223L213.91557812500002,136.03064056521998L214.07917773437498,135.85242041194974L214.7153984375,135.80013359822465L215.224375,135.7591091988379L215.278908203125,135.74291155867598L216.00601757812498,136.0999040709089L216.442283203125,136.60213436412627L216.624060546875,136.73105065118506L217.6238359375,136.51419675187827L217.86014648437498,136.46504720026917L218.0601015625,136.44587730912798L218.38730078125,135.50390945945696L219.04169921875,135.00836656842432L219.132587890625,134.24763015286047L219.150765625,133.88318449645428L219.18712109375,133.7049447873945L219.44160937499998,134.4550080319798L219.6597421875,135.36747454852474L219.84151953125,134.95837819779825L220.07783007812498,133.94385062903382L220.16871875,133.18156412934843L220.18689648437498,132.88294896247788L220.4595625,132.73181606660694L220.56862890625,132.77672904980966L220.75040625,132.10868741858044L221.18667187499997,131.93647182836773L221.495693359375,131.79329024520845L221.89560351562503,131.64360545247285L222.45911328124998,131.47114378531649L222.586357421875,131.56376675991504L222.640890625,131.527259951565L222.7863125,131.44821694672467L223.07715625,131.36251949992177L223.1498671875,131.2826581721904L223.240755859375,131.36170225999257L223.277111328125,131.38729975780382L223.313466796875,131.35678292391836L223.368,131.4563338343986L224.00422070312501,131.86016390232373L224.13146484375,132.04286774537206L224.42230859375,132.2659545800651L224.78586328125,132.41406263805095L225.29483984375,132.6862216390606L225.33119531250003,132.86213870249986L225.349373046875,132.98661759844194L225.38572851562498,133.12796573035203L225.49479492187498,133.22161360985316L225.65839453125,133.34331989313745L225.7674609375,133.5210842827675L225.858349609375,133.64672528362752L226.38550390625002,133.90699998098142L226.6399921875,133.984020451596L226.83994726562497,139.070688031955L227.021724609375,142.3083152603712L227.09443554687502,145.30901661649438L227.11261328125,147.4818954112779L227.62158984375,145.32004400204073L227.785189453125,144.06738903154837L227.930611328125,142.7584479713055L228.20327734375002,140.42631198221844L228.221455078125,139.0408106358476L228.439587890625,138.30730661494027L229.00309765625002,137.69429893069236L229.16669726562498,137.03093257302612L229.4030078125,136.49713589186032L229.457541015625,135.6961988751347L229.47571875,135.1148091445555L229.566607421875,134.67694079221422L229.73020703125,134.29796237336097L229.87562890625003,133.86615042060697L230.002873046875,133.55547939531962L230.02105078125,133.4542825952024L230.33007226562498,133.7647948573034L230.87540429687502,134.53856581021444L231.057181640625,134.9566845033711L231.7297578125,135.10653638013707L231.89335742187498,135.181669802478L231.91153515624998,135.26474528102017L232.0206015625,135.29443427132873L232.31144531249998,135.33769048250826L232.43868945312502,135.50577410728727L232.947666015625,135.93937581635657L232.96584375,136.18768245330105L233.129443359375,136.46820027495357L233.22033203125,136.51280332669035L233.42028710937498,136.65728038642L233.58388671875,136.6605255381764L233.838375,136.4955751155805L234.038330078125,136.41745937848583L234.52912890624998,136.4026159670296L234.58366210937498,136.3510724852831L234.74726171875,136.1249364595731L235.201705078125,133.73926888916878L235.27441601562498,132.19313014266376L235.438015625,130.51411651908936L235.69250390624998,130.13836694237068L235.8015703125,130.82648005769536L235.83792578125,131.5185974216162L236.45596874999998,132.16632127291882L236.56503515625,132.47539690776094L236.6741015625,132.50999615413363L236.71045703125,132.4058894764546L236.728634765625,132.40938804454586L236.910412109375,132.68446804879838L237.00130078125,132.6626080230074L237.25578906249999,133.27728354230345L237.419388671875,133.30358526286378L237.710232421875,133.3390545546715L238.16467578125,133.6217848598781L238.510052734375,134.52646418451207L238.67365234375,135.2729370791415L239.0008515625,135.68849554812743L239.32805078125,135.93440091323535L239.491650390625,136.10147893690439L239.90973828125001,136.3766566270574L239.94609375,136.406193538654L239.96427148437502,136.42659347304593L240.8913359375,136.4731382692607L241.03675781249999,136.57986422133592L241.091291015625,136.6733784725848L241.254890625,136.63172092739242L241.563912109375,136.3246533359931L241.94564453125,136.16210362664302L242.218310546875,135.9574623036741L242.50915429687498,135.8486725937884L242.872708984375,135.89074812026007L242.99995312500002,136.07719010147343L243.127197265625,136.23241396295037L243.2180859375,129.0688977886422L243.781595703125,129.69567652150187L243.927017578125,130.3951115302856L243.96337304687498,131.1075797678057L244.581416015625,133.1657181664557L244.63594921875,134.5784477240755L244.8904375,135.65677416062383L244.944970703125,136.36055599618842L245.14492578125,137.0485245274727L245.25399218750002,137.60292914325254L245.76296875,137.987570094497L245.817501953125,138.09699488345822L245.83567968749998,138.1792459007309L245.94474609374998,137.95081251035097L245.9811015625,137.608928592026L246.29012304687498,137.2561362949944L246.43554492187502,137.1393420612124L246.59914453125,137.26028613972866L246.871810546875,137.68332815821077L247.162654296875,138.1231790321557L247.8715859375,138.05863475860448L248.08971875,137.95453642101407L248.12607421875,137.89508513385846L248.3078515625,137.96654120441065L248.50780664062498,137.85938202300594L248.63505078125002,137.87839716160738L248.762294921875,137.97851083079735L248.798650390625,138.03848695939095L249.10767187500002,138.1330386866431L249.45304882812502,137.93801934048426L250.107447265625,137.9207457237752L250.289224609375,137.86527349551392L250.59824609375,138.03499560247693L250.7073125,138.18426176612985L250.870912109375,138.42667018487208L251.416244140625,138.50513218655135L251.83433203124997,141.010326179024L251.852509765625,140.83871288048792L252.179708984375,142.26330370492462L252.688685546875,142.88690913300837L252.77957421875,143.54803299166528L253.015884765625,143.5689807370768L253.0340625,143.67632311035354L253.270373046875,143.40888238383462L253.415794921875,143.23107754792107L253.50668359374998,142.89972137519374L253.54303906250001,142.79109309705564L253.561216796875,142.44930605916386L253.924771484375,142.22126931554095L254.01566015625,142.2718386805416L254.27014843749998,141.9069649616153L254.45192578125,141.17141957408722L254.542814453125,140.9766789677966L254.67005859374999,140.616854167177L254.942724609375,140.290233927322L255.015435546875,140.05001307242992L255.233568359375,139.9824622110089L255.86978906250002,139.83784325768278L256.033388671875,139.56744779150432L256.12427734375,139.39627943852176L256.905919921875,139.1796765514964L256.99680859375,138.89907584881945L257.269474609375,138.79662429270843L257.4694296875,138.75143492045981L257.542140625,138.58838330293398L257.83298437499997,138.58414445597026L258.069294921875,138.65714697895217L258.432849609375,138.36907932402625L258.59644921875,138.26763360807098L258.74187109375,138.23319110664283L259.10542578125,138.4263265996186L259.39626953124997,138.49577245256623L259.75982421875,138.3238768255464L259.814357421875,138.21496187358156L260.10520117187497,138.0942003498292L260.359689453125,134.5775103215086L260.396044921875,130.37276063876143L260.596,129.69746906740272L261.68666406250003,131.5953601181566L261.850263671875,132.09178638339392L261.86844140625,132.66750287071352L262.4137734375,135.21170315613006L262.759150390625,137.15054121026463L262.81368359375,138.40803464027954L263.21359375000003,140.0266964378681L264.0134140625,140.83343593516128L264.395146484375,141.5557106422402L264.504212890625,141.56890069439845L264.540568359375,141.4989900897542L264.92230078125,141.81639666241188L265.3222109375,142.1119955538075L265.849365234375,142.2162489898745L266.685541015625,142.4800187462307L266.97638476562497,142.4101776125816L267.194517578125,142.56802513312567L268.26700390625,142.09417568945017L268.55784765625,141.84769264802844L269.121357421875,140.55196041594886L269.26677929687503,139.95906590008752L269.64851171875,138.74382847895632L270.102955078125,138.3486805449044L270.19384375000004,138.38250867990618L270.430154296875,139.01047148983457L270.66646484375,139.14064720407862L270.77553125000003,139.15603562836927L271.53899609375003,138.75285872713863L271.557173828125,138.4381075609042L271.64806250000004,138.37321770294932L271.738951171875,138.47892267332765L271.920728515625,138.4928487881147L272.46606054687504,138.47688186052363L272.70237109375,138.28231186146743L272.97503710937497,138.3676852677233L273.28405859375,138.7025552881503L273.774857421875,139.03176556944945L273.79303515624997,139.26860687522515L273.93845703125,139.56165753888683L274.15658984375,139.84803682346973L274.211123046875,140.06257855652578L274.37472265625,140.00996597969905L274.647388671875,140.01691560528934L274.720099609375,140.05011904153218L274.756455078125,140.10931020381395L275.02912109375,140.1101134102051L275.3563203125,140.09147485757714L275.68351953125,140.14437447857492L275.95618554687496,140.317085564997L276.13796289062503,143.47429527529414L276.19249609375004,132.38808871538623L276.41062890625,129.45895735000647L276.428806640625,127.1472532593802L276.501517578125,126.15441032257701L277.01049414062504,128.94245343862733L277.483115234375,131.92160222966365L278.08298046875,134.57283524298006L278.173869140625,136.5020504517212L278.35564648437503,137.49648774402465L279.010044921875,138.33847074297793L279.10093359374997,139.04377336202157L279.97346484375,139.43706192530232L280.04617578125,139.70749335371767L280.40973046875,139.91773754776418L281.28226171875,140.00657151321386L281.30043945312497,140.06479779372322L281.773060546875,140.25017304116312L281.82759375,140.41070323848294L282.59105859375,140.58695599723902L282.88190234374997,140.69134957691728L283.518123046875,141.14078406318083L283.7907890625,141.4347213149421L283.9362109375,141.66897451467884L284.027099609375,141.78620896743823L284.04527734375,141.90922302228643L284.26341015625,141.9110457769561" style="fill: none;" fill="none"></path></g></g></g></g><g opacity="0.2"><g><g><g><path stroke="rgb(255, 112, 67)" stroke-width="2px" d="M44.444560546874996,-6.651516567577033L44.7172265625,35.897144664417596L44.771759765625,37.331448945132166L44.7899375,37.88603483546862L44.97171484375001,33.596127293326646L46.098734375,27.514403993433177L46.589533203125,27.049320654435576L46.880376953125,28.886405598033548L47.00762109375,29.633462255651295L47.025798828125005,29.614050214940846L47.6256640625,28.467703992670238L47.88015234375,28.27327667583117L48.025574218749995,27.954550916498363L48.061929687500005,28.560045459053725L48.116462890624994,28.72788672013715L48.152818359375,28.22052656520495L48.370951171875,28.244964252818704L48.552728515625,28.254977182908476L49.33437109375,28.007799755443216L49.47979296875,28.823565829883904L49.62521484375,28.743999481201143L50.025124999999996,28.59737335551867L50.097835937499994,28.395733659917653L50.261435546875,28.636887983842314L50.334146484375005,28.870599746704073L50.370501953125,29.175476204265237L50.624990234375005,28.778757008639246L50.661345703125,29.008900945836842L50.75223437499999,28.936316793615163L50.78858984375,29.073543808676988L50.93401171875,29.530877676877083L51.043078124999994,30.024887258356273L51.061255859375,30.118609818545252L51.5520546875,30.701086131009163L52.842673828125,31.792035146193058L52.879029296875,76.89558564532886L53.478894531250006,55.60577526959506L53.533427734374996,49.693926507776425L53.842449218750005,51.86331796646118L54.006048828125,49.31784699179907L54.0242265625,49.446787444027976L54.133292968750006,50.13714252818713L54.151470703125,50.718966657465145L54.242359375,51.9029860496521L54.569558593749996,51.160648129203096L54.624091796875,50.566585974259795L54.78769140625,52.29184068333019L55.678400390625,50.665295817635254L55.73293359375,51.254102143374354L55.842,50.56608724594116L55.95106640625,49.929709911346436L56.04195507812501,49.90910859541458L56.223732421875,50.467530857432976L56.33279882812501,50.08082459189673L56.4236875,50.11953358216718L57.3689296875,51.64959370006214L57.459818359375,51.65669098767367L57.47799609375,51.84931520982221L57.805195312500004,52.502764398401425L58.041505859375,51.618864362890065L58.27781640625,52.07846169038251L58.968570312500006,51.40863119472155L59.277591796875,51.1039465557445L59.641146484375,51.05779500441116L59.750212890625,51.51566596464676L59.87745703125,51.87613144787875L60.2773671875,51.66919755935669L60.331900390625,51.55871005491775L60.53185546875,51.29875750975174L60.58638867187501,51.34118778055364L60.640921875,51.33535649559714L60.659099609375005,51.324154290285975L61.531630859375,71.03913409059697L61.640697265625,67.01387864893132L61.658874999999995,66.26879772272976L62.05878515625,60.0422322099859L62.276917968750006,59.77111582322553L62.4586953125,59.82079683650623L63.00402734375,61.98493246598676L63.203982421875,60.45306925340131L63.349404296875,61.61180695620449L63.458470703125,62.14598334919323L64.040158203125,60.788636684417725L64.11286914062501,59.83829069137573L64.5673125,60.20796346664429L64.85815625000001,60.49212351712313L64.876333984375,60.5534287366L65.149,61.54647354646161L65.2217109375,61.14081560481678L65.530732421875,61.055686517195255L66.166953125,63.366294817490996L66.312375,63.56402141397649L66.6759296875,63.37289337678388L66.93041796874999,63.632692467082634L67.09401757812499,63.594213659113095L67.203083984375,63.995920137925566L67.239439453125,63.96522916447033L67.29397265625,63.85190274498679L67.421216796875,63.78388387506658L67.58481640625,63.66411235115744L67.8393046875,63.699061697179616L67.87566015625,63.710954449393526L67.930193359375,63.773909308693604L68.07561523437501,63.68498221310702L68.09379296875,63.867324959148064L68.62094726562499,64.03612531315197L68.730013671875,63.84768273613669L69.166279296875,53.542919852516846L69.54801171875,82.32105920531534L69.8752109375,77.39768997105685L70.038810546875,77.6001928502863L70.27512109375,76.6361701921983L70.329654296875,76.77683075991543L70.475076171875,76.95278594710611L71.202185546875,70.68480680205606L71.51120703125001,70.651315277273L71.692984375,69.59514297138561L71.747517578125,69.8743924661116L72.111072265625,70.61214592240073L72.401916015625,69.23183857310902L72.729115234375,69.02477041157809L72.80182617187499,68.51953944292934L72.947248046875,68.88984521952541L73.25626953125,68.08296034552835L73.36533593749999,67.61557518352161L73.8016015625,68.37970369512384L74.03791210937501,68.52297299558465L74.09244531249999,68.52554336461154L74.110623046875,68.53870211948048L74.256044921875,68.1112535866824L74.32875585937501,68.07193077694286L74.456,67.76490595123984L74.728666015625,66.946416052905L75.346708984375,67.67421412467957L75.419419921875,67.93445439772171L75.5466640625,67.92200537161392L75.710263671875,68.36951812830837L76.110173828125,68.97666231068698L76.18288476562499,69.41519795764576L76.328306640625,69.2161286310716L76.473728515625,69.10903631557117L76.546439453125,69.12537925893609L76.909994140625,68.5844124880704L77.0008828125,68.85253650491887L77.019060546875,68.8105474168604L77.055416015625,68.90118169784546L77.10994921875,68.66292383454062L77.32808203124999,68.29200423847546L77.382615234375,68.5075891451402L77.47350390624999,68.81359733234753L77.818880859375,79.0884940624237L78.109724609375,77.20853766528042L78.291501953125,81.28537312420931L78.509634765625,81.19069147109985L78.982255859375,84.9654893875122L79.14585546875,84.30229581486095L79.782076171875,85.37694025039673L79.80025390624999,84.94987535476685L79.83660937500001,85.0672875100916L80.6364296875,82.28526585752313L80.7818515625,82.13965637033635L80.945451171875,82.1274758902463L80.981806640625,81.80978595126759L81.0726953125,81.96423827518116L81.52713867187501,80.8278666192835L81.54531640625,80.82550725069912L81.72709375000001,80.48577735640787L81.76344921875,80.69733407280661L81.854337890625,80.9099649732763L82.10882617187501,80.02182574705643L82.21789257812499,80.42750287055969L82.3814921875,81.0178053812547L82.654158203125,79.79091453552246L82.726869140625,79.35375998236917L82.763224609375,79.17540706287731L83.21766796875,79.51488759300925L83.617578125,80.14973037893121L83.72664453125,80.59847077456386L84.035666015625,80.74325544183904L84.14473242187499,81.08177687905051L84.617353515625,81.25119105252352L85.03544140625,81.3573626388203L85.162685546875,81.20657404986295L85.25357421875,81.16264759410511L85.489884765625,81.31439527598295L85.61712890625,81.22506536136974L85.889794921875,81.04078524762933L86.1624609375,77.873572696339L86.41694921874999,83.47548098997635L87.053169921875,82.7087053819136L87.07134765625,83.35321582447399L87.08952539062501,82.94713588194412L88.561921875,83.90438734401356L88.72552148437501,84.333773244511L88.88912109374999,83.54977232759649L88.9981875,82.76719086820428L89.434453125,82.18392809954557L90.288806640625,82.36068892478943L90.434228515625,82.18231682343915L91.088626953125,82.90086923946033L91.37947070312501,82.72286159341985L91.43400390625,83.14219620011069L91.57942578125001,83.06188175894998L91.63395898437501,83.08599335497075L92.070224609375,83.43564027005975L92.142935546875,83.63975442539562L92.68826757812501,83.9213824705644L93.10635546875,84.39400427991693L93.37902148437499,84.27467393875122L93.706220703125,84.99213298884305L93.81528710937499,85.03170516274191L94.10613085937499,81.53849692778152L94.43333007812501,86.98727644573559L94.4515078125,87.30348938161676L95.06955078125,83.40360656651583L95.251328125,85.4609567902305L95.305861328125,85.47442245483398L95.32403906249999,84.68913635340604L95.36039453125001,84.32205312902276L95.378572265625,83.65546436743301L95.833015625,83.86404789577831L96.43288085937499,82.90155978636307L96.85096875,83.73633508248761L97.159990234375,83.97777713428844L97.7235,84.9373496012254L98.214298828125,84.78826819766651L98.3051875,84.1959707736969L98.70509765624999,84.58814386887983L99.050474609375,85.1976282379844L99.08683007812499,85.33000224286859L99.32314062500001,84.90844254060224L99.613984375,85.76663888584484L100.14113867187501,85.37724716013128L100.19567187499999,85.21448909152637L100.650115234375,85.08380309018222L101.122736328125,85.4863343889063L101.4317578125,85.19590187072754L101.7953125,85.24700234153055L102.12251171875,85.80381332744251L102.15886718750001,85.88138476285067L102.19522265625,85.95172463763843L102.3042890625,86.17945166067642L102.813265625,82.16459278626874L103.06775390625,96.77990289167924L104.08570703125,96.41805631464177L104.15841796875,96.0264203114943L104.30383984375001,95.53444400700656L104.35837304687499,96.47009669650684L104.9218828125,96.14523274248296L105.0673046875,94.87800244851545L105.303615234375,94.46950559182599L105.39450390625,93.4634171182459L105.68534765625,94.1840411749753L105.776236328125,93.95541260459206L105.812591796875,93.84321791475469L105.99436914062501,93.57570771737531L106.067080078125,93.56734442710876L106.594234375,93.64395676959644L106.8123671875,93.55961413816972L107.757609375,93.09846308014609L107.884853515625,92.65332887389442L107.957564453125,92.7713740305467L108.15751953125,93.05133325403386L108.26658593750001,93.28895811601117L108.37565234374999,93.42269403284246L108.7755625,93.94177430326289L109.23000585937501,94.62959738211198L109.24818359375,94.7628153887662L109.46631640625,94.36272018606013L109.666271484375,94.36736219579524L109.72080468749999,94.12123977054249L110.756935546875,93.6140906160528L110.84782421874999,93.76624111695722L110.86600195312501,93.6211303580891L111.047779296875,93.87396643378517L112.37475390625,95.41315711628307L112.574708984375,96.36826021021062L112.59288671875,96.64660815759137L112.6292421875,96.90201460231434L112.72013085937499,97.70592628825794L112.73830859375,97.90892789580604L113.19275195312501,99.50537642565641L113.283640625,100.66929323023015L113.33817382812501,100.46224425055763L113.483595703125,101.50629362193021L113.847150390625,100.99411882053722L113.90168359375,101.1367167559537L113.91986132812501,101.29571518031034L114.19252734375,101.94931782375683L114.48337109375,102.22762740742077L114.5924375,101.93061551180753L114.828748046875,101.13855821436101L114.865103515625,100.9997199231928L115.1014140625,100.9339453307065L115.301369140625,100.86878455768932L115.77399023437499,101.12020117586309L116.210255859375,101.4726870059967L116.3375,101.47982265732504L116.44656640625,101.5823113268072L116.51927734375,101.12777800993486L116.88283203124999,100.59400443597274L116.937365234375,100.77003635059704L117.700830078125,101.56418447061019L118.0098515625,101.69099573655562L118.31887304687501,102.01045040650801L118.33705078125,101.94421544941989L118.70060546875,101.45950906926936L118.755138671875,101.5861476984891L118.91873828125,101.42805082147771L119.57313671875,110.95312870632519L119.62766992187501,107.75173408334905L119.918513671875,108.21551305597478L119.95486914062501,106.49071871150623L120.4820234375,105.11522600867531L120.991,102.85157489776611L121.136421875,103.15602935444225L121.2091328125,102.60842566056685L121.3545546875,103.03754301504655L121.554509765625,103.6663051518527L122.027130859375,103.92010032046925L122.11801953125,103.91181375763632L122.40886328125,103.48436522483826L122.69970703125,104.28762472759594L122.84512890625,105.08298130468889L123.00872851562501,105.10613380778919L123.17232812499999,104.52135567231612L123.372283203125,104.8082203648307L123.39046093750001,104.94132328033447L123.49952734374999,104.4438801462L123.60859375,103.9415456381711L123.64494921874999,103.80401171337475L123.69948242187499,103.71124824610624L124.335703125,104.35560523379932L124.55383593750001,104.62658734755082L124.89921289062501,105.30117494409734L125.31730078125,104.72096209092574L125.68085546875,105.4422958764163L126.11712109375,104.96645151485096L126.40796484375,104.60074938427319L126.55338671874999,104.67937582189387L126.716986328125,104.63460536436601L126.77151953125001,104.66170933029868L126.807875,104.58360080285506L127.73493945312501,116.4286093711853L127.78947265625,117.09573522481051L128.15302734374998,111.1643976948478L128.18938281249999,112.81651197780262L128.207560546875,110.68339341337031L128.3348046875,109.52494343844327L128.66200390625,108.23457982323386L129.17098046875,108.66444527019154L129.53453515625,108.54160464893688L129.570890625,109.12711169502951L129.67995703125,108.30194650996815L130.152578125,108.88252381844954L130.243466796875,107.97717846523632L130.55248828125002,108.77568086710843L130.87968750000002,108.89658412066373L131.025109375,108.59218720956282L131.58861914062498,108.05553635683927L132.07941796875,108.01805500550704L132.497505859375,107.43626923994584L133.02466015624998,107.93300264531916L133.224615234375,107.72033338113265L133.515458984375,107.96950572187251L133.769947265625,107.57466634837064L134.1516796875,108.03140557896008L134.8787890625,107.75603081963278L135.27869921875,108.67217555913058L135.369587890625,108.7597407427701L136.0421640625,116.12895037911154L136.242119140625,103.064589435404L136.351185546875,104.38604684309526L136.605673828125,101.87786540118131L136.642029296875,103.20204663276672L137.223716796875,109.59827568314292L137.65998242187501,111.8827966560017L137.878115234375,113.66435011950406L137.914470703125,114.07330734079534L138.023537109375,114.25131498683584L138.241669921875,113.0777880711989L138.69611328125,110.6576321775263L139.20508984375002,111.00495808774775L139.2414453125,110.60415315628052L139.31415625,111.30225771123713L139.58682226562502,110.94175386428833L140.332109375,109.1278789693659L140.386642578125,109.03806950829245L140.713841796875,109.17165197025646L141.041041015625,108.6446304104545L141.3500625,109.12482905387878L141.404595703125,108.98276821049777L141.586373046875,109.00760871713811L141.91357226562502,108.5853201042522L141.93175,108.60298659584738L142.24077148437502,108.43520288033919L142.2953046875,108.39749134670605L142.91334765625,108.17200860110196L142.94970312499998,108.07116957144304L143.076947265625,108.34410823475231L143.56774609375,109.0462217981165L143.731345703125,109.43450097604232L144.113078125,109.35303562337702L144.54934375,113.977647412907L144.640232421875,115.66037594188344L144.749298828125,115.93060996315695L145.24009765625001,116.89885263009505L145.60365234374999,115.7681396224282L145.69454101562502,115.40289785645224L145.96720703124998,115.94459353793752L146.058095703125,116.42043789950284L146.5125390625,115.60722301223062L146.83973828125,116.61664912917398L146.91244921875003,116.21465492248535L147.003337890625,116.29997582869096L147.294181640625,116.38090408932078L147.330537109375,116.08253028176047L147.621380859375,116.52712739597666L147.657736328125,116.10848333618857L147.766802734375,116.43572584065524L147.803158203125,116.19775570522654L148.057646484375,116.034076907418L148.13035742187498,115.66756913878702L148.5484453125,115.77774973349138L148.712044921875,115.62623223391446L149.057421875,115.53663377328353L149.257376953125,116.49213968623769L149.29373242187498,116.39688257737593L149.402798828125,116.81746400486338L149.63910937499998,116.54824662208557L149.96630859375,116.55808691544966L150.675240234375,117.03352845798838L151.093328125,116.87192130088806L151.1660390625,116.89050852168691L151.184216796875,116.84456797079606L151.3114609375,116.66914987564087L151.62048242187498,116.61638058315623L151.8204375,116.73968156901273L152.02039257812498,116.7509029561823L152.14763671875,116.96806077523665L152.256703125,117.08357392657888L152.69296875,84.80484132333234L153.692744140625,114.53840986165133L153.765455078125,115.63990889896047L154.001765625,118.48024340109392L154.419853515625,119.84428453445435L154.43803125,119.49028333750638L154.5107421875,119.20286237109792L154.874296875,121.59645139087331L154.89247460937503,121.49720445546237L154.91065234375,121.56159795414317L155.05607421874998,122.53371535648L155.41962890625,122.72373084588484L155.85589453125,120.74750070138411L155.983138671875,120.43167140267111L156.037671875,120.07926229997115L156.383048828125,119.40287160873413L157.364646484375,120.96339251778342L157.52824609375,120.92132670229131L157.56460156249997,121.16180966117166L157.6373125,121.52338769219138L157.74637890625002,121.40409571474248L157.800912109375,121.23838363994253L157.92815625,120.83422188325362L158.07357812499998,120.66344579783353L158.128111328125,120.35166387124495L158.346244140625,119.75318988886747L158.83704296874998,119.48890224370089L158.90975390625002,119.64191592823374L159.109708984375,119.41773754900152L159.3096640625,119.3987858728929L160.54575000000003,118.93540971929377L160.80023828125,118.84009506485678L160.94566015624997,92.31394425305453L161.20014843750002,108.71688847108321L161.218326171875,110.58796366778287L161.690947265625,116.10844497247176L161.94543554687502,117.5431137084961L162.39987890625,117.29382627660578L162.92703320312498,118.43812004002658L162.98156640624998,118.56782776659185L163.45418750000002,120.75548035448247L163.78138671874999,120.2429219159213L163.85409765625,120.02344309199941L164.308541015625,121.02623228593306L164.43578515624998,120.91167822751132L164.781162109375,121.96382234313272L165.25378320312498,122.20674139803106L165.52644921875,122.75388472730464L165.67187109375,122.37208901752126L165.69004882812501,122.34997233477506L166.08995898437502,122.08393914049321L166.162669921875,122.31139761751348L166.41715820312498,122.09182288429953L166.780712890625,122.33424321087924L167.144267578125,121.91686515374617L167.30786718750002,122.15420228784734L167.47146679687498,121.93696774135935L167.507822265625,121.8100989298387L167.52599999999998,121.79960645328867L167.87137695312498,122.22563552856445L167.92591015624998,122.13548079403964L168.089509765625,122.34596332636747L168.76208593750002,121.30260450189763L169.0529296875,121.50788875059648L169.252884765625,112.25087733702226L169.58008398437502,122.78505524722013L169.761861328125,122.1770286993547L169.7800390625,122.63418993082914L170.016349609375,122.65787952596492L170.10723828125,123.28253674507141L170.125416015625,123.55081421678716L170.54350390624998,124.13409616730429L170.61621484375,123.90360695665532L170.888880859375,125.63655359094793L171.434212890625,125.30422789400274L171.5978125,126.38180715387517L171.65234570312498,126.54978268796748L171.77958984375,126.4345572645014L171.9613671875,126.04798527197404L172.01590039062498,126.5582994331013L172.1067890625,127.18416510928762L172.28856640625,127.30219108408147L172.72483203125,127.4295778057792L172.888431640625,127.08994382077998L173.23380859374998,126.258333531293L173.542830078125,125.61955846439707L174.4335390625,124.89922213554382L174.669849609375,125.00000361962752L174.7243828125,124.91759835590017L175.28789257812502,124.32250038060275L175.3060703125,124.32929075847971L175.615091796875,124.38150377707048L175.79686914062498,124.11240148544312L175.8877578125,123.86581869558854L176.087712890625,123.90611978010698L176.19677929687498,123.48454089598222L176.3240234375,123.20985668355769L176.65122265625,123.15488147735596L176.74211132812502,123.03557031804866L176.833,123.24618712338534L177.16019921875,123.06117809902537L177.36015429687498,129.15602179007095L177.41468749999999,120.58157762614164L177.77824218749998,128.15183232047343L177.9236640625,130.00472311540085L178.10544140625,127.35517137700862L178.32357421875,125.96709537506104L178.741662109375,125.38285433162343L178.83255078124998,126.42084223573858L179.94139257812498,126.43461481007662L179.9595703125,126.47806171937422L180.03228125,126.04758245294744L180.54125781250002,125.84436984495683L181.322900390625,125.5777611949227L181.468322265625,124.62714665586299L181.613744140625,125.07968505946073L181.63192187500002,125.1345643563704L182.24996484375,125.11168039928782L182.44991992187502,125.50322049314326L182.66805273437498,125.21401561390269L182.97707421875,125.37408822233027L184.06773828125,124.6879339651628L184.50400390625,125.1604982289401L185.0493359375,124.86824343421243L185.122046875,124.74509590322322L185.37653515625001,124.96722182360563L185.685556640625,131.27137795361605L185.794623046875,133.71884881366384L186.558087890625,122.44181507283992L186.848931640625,126.25491916049612L187.04888671875,125.02977386387911L187.21248632812498,124.65442325852133L187.35790820312502,124.70308763330632L187.721462890625,125.33336513692683L187.75781835937502,124.94132631475276L187.81235156250003,124.43316052176736L187.84870703125,124.45784757354043L187.9577734375,124.44319263371554L188.17590625,124.89243175766684L188.32132812499998,125.06727439706975L188.37586132812498,125.4719157002189L188.46675000000002,124.91360852935098L188.593994140625,124.81558923287825L188.630349609375,124.90365314483643L189.55741406250002,126.63358822735873L189.757369140625,126.35848201404917L189.90279101562498,126.93585595217618L190.266345703125,126.26727227731185L190.2845234375,126.1929617578333L190.32087890625002,126.45721103928305L190.5753671875,126.75353238799356L190.64807812499998,127.46049896153536L190.811677734375,127.2591661756689L190.82985546875,127.14046883583069L190.920744140625,127.2656112800945L190.99345507812498,127.31007482788779L191.01163281249998,127.5889406854456L191.284298828125,127.37650160356002L191.84780859375002,126.28179294412786L192.06594140625,126.01368810913779L192.19318554687501,125.98345750028437L192.28407421875,126.12530734322287L192.5385625,126.69356989860535L192.70216210937502,127.17693354866721L192.974828125,127.35507546771657L193.174783203125,127.59582697261465L193.30202734375,127.623525576158L193.32020507812499,127.71573276953264L193.4838046875,127.37857324426824L194.17455859375002,134.11297845840454L194.31998046875,134.4748058535836L194.338158203125,133.71779381145132L194.410869140625,132.61144176396456L194.992556640625,130.51288890838623L195.84691015624998,130.59304989467967L195.91962109375,131.1519708850167L196.24682031249998,131.69021383198825L196.337708984375,131.64452264525676L196.664908203125,131.37260062044317L196.71944140624998,131.0562150478363L197.101173828125,130.24896571852946L197.30112890624997,130.55501226945358L197.73739453125,131.07771791111338L197.86463867187499,130.8459626978094L198.17366015624998,130.3641335964203L198.210015625,130.4639368057251L198.264548828125,130.6985117522153L198.64628125000002,130.46639208360153L198.68263671875,130.57465449246493L198.773525390625,130.4894870411266L198.97348046874998,130.0977934924039L199.19161328125,129.34225845336914L199.500634765625,129.33297443389893L199.82783398437502,129.287686066194L199.936900390625,129.4383212002841L200.0277890625,129.52736338702115L200.118677734375,129.5762963078239L200.44587695312498,129.73897764899516L200.4640546875,129.70615748925644L200.954853515625,129.22179638255727L201.100275390625,129.00091728297147L201.28205273437501,129.1848521232605L201.4820078125,128.93366568738764L201.863740234375,128.92867840420115L202.190939453125,112.81334697116505L202.77262695312498,126.95849054509944L202.7908046875,126.93355412916704L202.89987109375002,126.96269137209111L203.84511328125,125.4540190263228L203.88146874999998,125.72168267856944L204.06324609375002,125.47180060906844L204.190490234375,125.01974175193094L204.68128906249999,126.74045036055826L205.063021484375,127.27731221372431L205.244798828125,127.10943258892405L205.53564257812502,127.85514651645315L205.571998046875,127.50864542614329L205.6992421875,128.29128443111074L206.28092968750002,127.55679189075124L206.371818359375,127.52427864074707L206.5717734375,128.05032192577016L206.662662109375,128.46940716830167L207.44430468750002,128.6439045342532L207.498837890625,128.64893018115652L207.862392578125,129.1534897847609L207.971458984375,129.39819275249135L207.98963671875,129.65093291889536L208.4622578125,130.33796954154968L208.589501953125,130.3876889185472L209.71652148437502,131.50468689745122L209.73469921875,131.50729563019493L209.898298828125,131.52565266869286L210.02554296875002,131.4958056970076L210.08007617187502,146.65751103921372L210.2073203125,135.6713893630288L210.261853515625,145.9650651324879L210.661763671875,136.72606548396024L210.86171875,134.66666280139577L211.061673828125,130.58875315839595L211.243451171875,131.58118414878845L211.279806640625,132.25492774356496L211.297984375,132.15090452541006L211.352517578125,129.81023825298655L211.788783203125,132.12249619310552L211.897849609375,132.02700890194285L211.970560546875,132.0737742727453L212.3159375,134.80337190628052L212.49771484375,134.9443393837322L212.64313671875001,136.1157946586609L212.86126953125,135.9158621484583L213.58837890625,135.99157294360074L213.751978515625,136.68123748085716L213.77015624999999,136.71018290519714L213.91557812500002,135.6620094342665L214.07917773437498,135.5850901820443L214.7153984375,135.721703377637L215.224375,135.6975725997578L215.278908203125,135.71861509843308L216.00601757812498,136.63539283925837L216.442283203125,137.3554798039523L216.624060546875,136.92442508177322L217.6238359375,136.18891590291804L217.86014648437498,136.39132287285545L218.0601015625,136.41712247241628L218.38730078125,134.0909576849504L219.04169921875,134.26505223187533L219.132587890625,133.10652552951467L219.150765625,133.336516011845L219.18712109375,133.43758522380483L219.44160937499998,135.58010289885783L219.6597421875,136.73617432334208L219.84151953125,134.34473367170852L220.07783007812498,132.42205927588725L220.16871875,132.0381343798204L220.18689648437498,132.4350262121721L220.4595625,132.50511672280052L220.56862890625,132.8440985246138L220.75040625,131.10662497173655L221.18667187499997,131.67814844304866L221.495693359375,131.5785178704695L221.89560351562503,131.41907826336947L222.45911328124998,131.21245128458196L222.586357421875,131.70270122181284L222.640890625,131.47249973904002L222.7863125,131.3296524394642L223.07715625,131.23397332971746L223.1498671875,131.1628661805933L223.240755859375,131.4802683916959L223.277111328125,131.42569600452077L223.313466796875,131.31100767309016L223.368,131.60566020011902L224.00422070312501,132.46590900421143L224.13146484375,132.31692350994456L224.42230859375,132.60058483210477L224.78586328125,132.6362247250297L225.29483984375,133.09446014057505L225.33119531250003,133.12601429765874L225.349373046875,133.17333594235507L225.38572851562498,133.3399879282171L225.49479492187498,133.3620854291049L225.65839453125,133.52587931806391L225.7674609375,133.78773086721247L225.858349609375,133.83518678491765L226.38550390625002,134.29741202701223L226.6399921875,134.09955115751785L226.83994726562497,146.70068940249357L227.021724609375,147.16475610299545L227.09443554687502,149.81006865067917L227.11261328125,150.74121360345322L227.62158984375,142.07726688818497L227.785189453125,142.18840657580984L227.930611328125,140.7950363809412L228.20327734375002,136.92810799858788L228.221455078125,136.9625586162914L228.439587890625,137.20705058357933L229.00309765625002,136.77478740432048L229.16669726562498,136.03588303652677L229.4030078125,135.69644087011164L229.457541015625,134.49479335004634L229.47571875,134.24272454868662L229.566607421875,134.0201382637024L229.73020703125,133.72949474508113L229.87562890625003,133.21843249147588L230.002873046875,133.08947285738859L230.02105078125,133.30248739502647L230.33007226562498,134.230563250455L230.87540429687502,135.69922223958102L231.057181640625,135.58386254310608L231.7297578125,135.33131419528615L231.89335742187498,135.29436993598938L231.91153515624998,135.38935849883342L232.0206015625,135.33896775679153L232.31144531249998,135.40257479927757L232.43868945312502,135.7578995444558L232.947666015625,136.58977837996048L232.96584375,136.56014240871775L233.129443359375,136.8889770074324L233.22033203125,136.5797079042955L233.42028710937498,136.87399597601456L233.58388671875,136.66539326581088L233.838375,136.24814948168668L234.038330078125,136.30028577284378L234.52912890624998,136.3803508498452L234.58366210937498,136.27375726266342L234.74726171875,135.78573242100802L235.201705078125,130.16076753356242L235.27441601562498,129.8739220229062L235.438015625,127.99559608372775L235.69250390624998,129.5747425772927L235.8015703125,131.85864973068237L235.83792578125,132.5567734674974L236.45596874999998,133.13790704987267L236.56503515625,132.9390103600242L236.6741015625,132.56189502369273L236.71045703125,132.24972945993596L236.728634765625,132.41463589668274L236.910412109375,133.09708805517715L237.00130078125,132.6298179843209L237.25578906249999,134.19929682124746L237.419388671875,133.34303784370422L237.710232421875,133.3922584923831L238.16467578125,134.045880317688L238.510052734375,135.883483171463L238.67365234375,136.39264642108571L239.0008515625,136.31183325160634L239.32805078125,136.30325896089727L239.491650390625,136.35209597240794L239.90973828125001,136.78942316228694L239.94609375,136.45049890604886L239.96427148437502,136.4571933746338L240.8913359375,136.5429554635828L241.03675781249999,136.73995314944875L241.091291015625,136.81364984945816L241.254890625,136.56923460960388L241.563912109375,135.86405194889414L241.94564453125,135.9182790626179L242.218310546875,135.6505003192208L242.50915429687498,135.6854880289598L242.872708984375,135.9538614099676L242.99995312500002,136.3568530732935L243.127197265625,136.46524975516581L243.2180859375,118.32362352718008L243.781595703125,130.63584462079135L243.927017578125,131.4442640434612L243.96337304687498,132.17628212408584L244.581416015625,136.25292576443064L244.63594921875,136.69754206050527L244.8904375,137.27426381544632L244.944970703125,137.41622874953532L245.14492578125,138.08047732439908L245.25399218750002,138.43453606692228L245.76296875,138.56453152136368L245.817501953125,138.26113206690007L245.83567968749998,138.3026224266399L245.94474609374998,137.6081624247811L245.9811015625,137.09610271453857L246.29012304687498,136.72694784944707L246.43554492187502,136.9641507105394L246.59914453125,137.44170225750315L246.871810546875,138.3178911859339L247.162654296875,138.78295534307307L247.8715859375,137.9618183482777L248.08971875,137.79838891462845L248.12607421875,137.805908203125L248.3078515625,138.07372531023893L248.50780664062498,137.6986432508989L248.63505078125002,137.9069198695096L248.762294921875,138.12868133458224L248.798650390625,138.12845115228134L249.10767187500002,138.2748662775213L249.45304882812502,137.64549032124606L250.107447265625,137.8948352987116L250.289224609375,137.78206515312195L250.59824609375,138.28957876292142L250.7073125,138.40816101160917L250.870912109375,138.7902828129855L251.416244140625,138.62282518907028L251.83433203124997,144.76811716773295L251.852509765625,140.58129293268377L252.179708984375,144.40018994157964L252.688685546875,143.822317275134L252.77957421875,144.5397187796506L253.015884765625,143.6004023551941L253.0340625,143.83733667026866L253.270373046875,143.0077212940563L253.415794921875,142.96437029405075L253.50668359374998,142.40268711610275L253.54303906250001,142.62815067984843L253.561216796875,141.93662550232628L253.924771484375,141.87921420010653L254.01566015625,142.3476927280426L254.27014843749998,141.35965438322586L254.45192578125,140.06810149279508L254.542814453125,140.6845680583607L254.67005859374999,140.07711696624756L254.942724609375,139.80030356753957L255.015435546875,139.68968179009178L255.233568359375,139.88113591887736L255.86978906250002,139.62091482769358L256.033388671875,139.1618545922366L256.12427734375,139.1395269090479L256.905919921875,138.85477222095835L256.99680859375,138.47817479480398L257.269474609375,138.64294695854187L257.4694296875,138.6836508620869L257.542140625,138.34380587664518L257.83298437499997,138.5777861855247L258.069294921875,138.76665076342496L258.432849609375,137.93697784163737L258.59644921875,138.11546503413808L258.74187109375,138.18152735450053L259.10542578125,138.71602983908218L259.39626953124997,138.5999412319877L259.75982421875,138.0660333850167L259.814357421875,138.0515894456343L260.10520117187497,137.91305806420067L260.359689453125,129.30247527902776L260.396044921875,124.06563611464067L260.596,128.68453171036458L261.68666406250003,134.4421966942874L261.850263671875,132.83642578125L261.86844140625,133.5310776016929L262.4137734375,139.02800358425486L262.759150390625,140.05879829146647L262.81368359375,140.29427478530192L263.21359375000003,142.454689134251L264.0134140625,142.04354518110102L264.395146484375,142.63912270285869L264.504212890625,141.58868577263573L264.540568359375,141.3941241827878L264.92230078125,142.29250652139837L265.3222109375,142.55539389090103L265.849365234375,142.37262914397502L266.685541015625,142.87567338076505L266.97638476562497,142.305415912108L267.194517578125,142.8047964139418L268.26700390625,141.38340152393687L268.55784765625,141.4779680858959L269.121357421875,138.6083620678295L269.26677929687503,139.06972412629563L269.64851171875,136.92097234725952L270.102955078125,137.75595864382657L270.19384375000004,138.43325088240886L270.430154296875,139.95241570472717L270.66646484375,139.33591077544475L270.77553125000003,139.1791182648052L271.53899609375003,138.1480933752927L271.557173828125,137.96598081155258L271.64806250000004,138.275882916017L271.738951171875,138.63748012889516L271.920728515625,138.51373796029526L272.46606054687504,138.452931469137L272.70237109375,137.99045686288315L272.97503710937497,138.49574537710708L273.28405859375,139.2048603187908L273.774857421875,139.52558099139821L273.79303515624997,139.62386883388865L273.93845703125,140.00123353437942L274.15658984375,140.27760575034404L274.211123046875,140.3843911561099L274.37472265625,139.93104711445895L274.647388671875,140.02734004367483L274.720099609375,140.0999241958965L274.756455078125,140.19809694723648L275.02912109375,140.11131821979177L275.3563203125,140.0635170286352L275.68351953125,140.22372391007164L275.95618554687496,140.57615219463003L276.13796289062503,148.21010984073985L276.19249609375004,115.75877887552434L276.41062890625,125.06526030193675L276.428806640625,123.67969712344083L276.501517578125,124.66514591737227L277.01049414062504,133.1245181127028L277.483115234375,136.39032541621816L278.08298046875,138.5496847629547L278.173869140625,139.39587326483291L278.35564648437503,138.98814368247986L279.010044921875,139.60144524140793L279.10093359374997,140.101727290587L279.97346484375,140.02699477022344L280.04617578125,140.11314049634066L280.40973046875,140.2331038388339L281.28226171875,140.13982246138835L281.30043945312497,140.15213721448725L281.773060546875,140.528235912323L281.82759375,140.6514985344627L282.59105859375,140.8513351353732L282.88190234374997,140.84793994643474L283.518123046875,141.8149357925762L283.7907890625,141.87562719258395L283.9362109375,142.0203543142839L284.027099609375,141.9620606465773L284.04527734375,142.09374410455877L284.26341015625,141.91377990896052" style="fill: none;" fill="none"></path></g></g></g></g></g></g><g transform="translate(39, 177)" clip-path="url(#clip_1)"><clipPath id="clip_1"><rect width="290" height="23"></rect></clipPath><g><g><line x1="0" y1="0" x2="0" y2="5" style="visibility: inherit;" fill="rgb(0, 0, 0)" stroke="rgb(204, 204, 204)" stroke-width="1px"></line><line x1="36.35546875" y1="0" x2="36.35546875" y2="5" style="visibility: inherit;" fill="rgb(0, 0, 0)" stroke="rgb(204, 204, 204)" stroke-width="1px"></line><line x1="72.7109375" y1="0" x2="72.7109375" y2="5" style="visibility: inherit;" fill="rgb(0, 0, 0)" stroke="rgb(204, 204, 204)" stroke-width="1px"></line><line x1="109.06640625" y1="0" x2="109.06640625" y2="5" style="visibility: inherit;" fill="rgb(0, 0, 0)" stroke="rgb(204, 204, 204)" stroke-width="1px"></line><line x1="145.421875" y1="0" x2="145.421875" y2="5" style="visibility: inherit;" fill="rgb(0, 0, 0)" stroke="rgb(204, 204, 204)" stroke-width="1px"></line><line x1="181.77734375" y1="0" x2="181.77734375" y2="5" style="visibility: inherit;" fill="rgb(0, 0, 0)" stroke="rgb(204, 204, 204)" stroke-width="1px"></line><line x1="218.1328125" y1="0" x2="218.1328125" y2="5" style="visibility: inherit;" fill="rgb(0, 0, 0)" stroke="rgb(204, 204, 204)" stroke-width="1px"></line><line x1="254.48828125" y1="0" x2="254.48828125" y2="5" style="visibility: inherit;" fill="rgb(0, 0, 0)" stroke="rgb(204, 204, 204)" stroke-width="1px"></line><line x1="290.84375" y1="0" x2="290.84375" y2="5" style="visibility: inherit;" fill="rgb(0, 0, 0)" stroke="rgb(204, 204, 204)" stroke-width="1px"></line></g><g transform="translate(0, 8)"><text x="0" y="0" dx="0em" dy="0.95em" style="text-anchor: middle; visibility: hidden; font-family: &quot;Helvetica Neue&quot;, sans-serif; font-size: 12px; font-weight: 200;" fill="rgb(50, 49, 63)" stroke="none" stroke-width="1px">-2k</text><text x="36.35546875" y="0" dx="0em" dy="0.95em" style="text-anchor: middle; visibility: inherit; font-family: &quot;Helvetica Neue&quot;, sans-serif; font-size: 12px; font-weight: 200;" fill="rgb(50, 49, 63)" stroke="none" stroke-width="1px">0</text><text x="72.7109375" y="0" dx="0em" dy="0.95em" style="text-anchor: middle; visibility: inherit; font-family: &quot;Helvetica Neue&quot;, sans-serif; font-size: 12px; font-weight: 200;" fill="rgb(50, 49, 63)" stroke="none" stroke-width="1px">2k</text><text x="109.06640625" y="0" dx="0em" dy="0.95em" style="text-anchor: middle; visibility: inherit; font-family: &quot;Helvetica Neue&quot;, sans-serif; font-size: 12px; font-weight: 200;" fill="rgb(50, 49, 63)" stroke="none" stroke-width="1px">4k</text><text x="145.421875" y="0" dx="0em" dy="0.95em" style="text-anchor: middle; visibility: inherit; font-family: &quot;Helvetica Neue&quot;, sans-serif; font-size: 12px; font-weight: 200;" fill="rgb(50, 49, 63)" stroke="none" stroke-width="1px">6k</text><text x="181.77734375" y="0" dx="0em" dy="0.95em" style="text-anchor: middle; visibility: inherit; font-family: &quot;Helvetica Neue&quot;, sans-serif; font-size: 12px; font-weight: 200;" fill="rgb(50, 49, 63)" stroke="none" stroke-width="1px">8k</text><text x="218.1328125" y="0" dx="0em" dy="0.95em" style="text-anchor: middle; visibility: inherit; font-family: &quot;Helvetica Neue&quot;, sans-serif; font-size: 12px; font-weight: 200;" fill="rgb(50, 49, 63)" stroke="none" stroke-width="1px">10k</text><text x="254.48828125" y="0" dx="0em" dy="0.95em" style="text-anchor: middle; visibility: inherit; font-family: &quot;Helvetica Neue&quot;, sans-serif; font-size: 12px; font-weight: 200;" fill="rgb(50, 49, 63)" stroke="none" stroke-width="1px">12k</text><text x="290.84375" y="0" dx="0em" dy="0.95em" style="text-anchor: middle; visibility: hidden; font-family: &quot;Helvetica Neue&quot;, sans-serif; font-size: 12px; font-weight: 200;" fill="rgb(50, 49, 63)" stroke="none" stroke-width="1px">14k</text></g><line x1="0" y1="0" x2="290.84375" y2="0" fill="rgb(0, 0, 0)" stroke="rgb(204, 204, 204)" stroke-width="1px"></line></g></g></g></g></svg>